<svg width="1423" height="643" viewBox="0 0 1423 643" fill="none" xmlns="http://www.w3.org/2000/svg">
<g clip-path="url(#clip0_10_31)">
<g opacity="0.6">
<path opacity="0.6" d="M1170.17 138.778H1172.72V141.352H1174.5V138.778H1177.05V137.002H1174.5V134.445H1172.72V137.002H1170.17V138.778ZM810.748 171.493H813.321V174.068H815.095V171.493H817.65V169.718H815.095V167.161H813.321V169.718H810.748V171.493ZM463.037 219.627H465.592V222.184H467.366V219.627H469.939V217.852H467.366V215.277H465.592V217.852H463.037V219.627ZM1313.04 179.627H1315.59V182.184H1317.37V179.627H1319.94V177.852H1317.37V175.277H1315.59V177.852H1313.04V179.627ZM230.568 95.431H233.123V98.006H234.898V95.43H237.47V93.655H234.898V91.098H233.123V93.655H230.568V95.43V95.431ZM201.274 354.138H203.829V356.695H205.604V354.138H208.176V352.363H205.604V349.788H203.829V352.363H201.274V354.138ZM132.732 345.891H134.701V347.848H136.059V345.891H138.014V344.533H136.059V342.576H134.701V344.533H132.732V345.891ZM838.339 392.329C838.033 392.329 837.739 392.451 837.523 392.667C837.306 392.884 837.184 393.177 837.184 393.483C837.184 393.79 837.306 394.083 837.523 394.3C837.739 394.516 838.033 394.638 838.339 394.638C838.645 394.638 838.939 394.516 839.155 394.3C839.372 394.083 839.493 393.79 839.493 393.483C839.493 393.177 839.372 392.884 839.155 392.667C838.939 392.451 838.645 392.329 838.339 392.329ZM910.731 275.644C910.425 275.644 910.131 275.766 909.915 275.982C909.698 276.199 909.576 276.492 909.576 276.798C909.576 277.105 909.698 277.398 909.915 277.615C910.131 277.831 910.425 277.953 910.731 277.953C911.037 277.953 911.331 277.831 911.547 277.615C911.764 277.398 911.885 277.105 911.885 276.798C911.885 276.492 911.764 276.199 911.547 275.982C911.331 275.766 911.037 275.644 910.731 275.644ZM1210.37 233.891C1210.07 233.903 1209.79 234.03 1209.58 234.245C1209.38 234.461 1209.26 234.747 1209.26 235.045C1209.26 235.343 1209.38 235.629 1209.58 235.845C1209.79 236.06 1210.07 236.187 1210.37 236.199C1211.01 236.199 1211.53 235.682 1211.53 235.045C1211.53 234.407 1211.01 233.891 1210.37 233.891ZM1240.23 103.978C1239.6 103.978 1239.08 104.495 1239.08 105.132C1239.09 105.43 1239.22 105.712 1239.43 105.918C1239.65 106.125 1239.94 106.24 1240.23 106.24C1240.53 106.24 1240.82 106.125 1241.04 105.918C1241.25 105.712 1241.38 105.43 1241.39 105.132C1241.39 104.495 1240.87 103.978 1240.23 103.978V103.978ZM1123.63 160.314C1122.99 160.314 1122.47 160.831 1122.47 161.468C1122.47 161.697 1122.54 161.92 1122.66 162.11C1122.79 162.301 1122.97 162.449 1123.18 162.537C1123.39 162.625 1123.62 162.648 1123.85 162.604C1124.07 162.56 1124.28 162.451 1124.44 162.29C1124.6 162.128 1124.71 161.923 1124.76 161.699C1124.8 161.475 1124.78 161.242 1124.7 161.031C1124.61 160.819 1124.46 160.638 1124.27 160.511C1124.08 160.383 1123.86 160.315 1123.63 160.314V160.314ZM477.586 138.256C477.432 138.252 477.278 138.278 477.134 138.334C476.99 138.39 476.859 138.474 476.748 138.582C476.637 138.69 476.549 138.818 476.489 138.961C476.429 139.103 476.398 139.256 476.398 139.41C476.399 139.564 476.43 139.717 476.49 139.859C476.55 140.002 476.638 140.13 476.749 140.238C476.86 140.345 476.991 140.429 477.135 140.485C477.279 140.541 477.433 140.568 477.587 140.563C477.887 140.554 478.172 140.428 478.381 140.213C478.59 139.998 478.707 139.709 478.706 139.409C478.706 139.109 478.589 138.821 478.38 138.605C478.171 138.39 477.886 138.265 477.586 138.256V138.256ZM1327.59 98.256C1326.95 98.256 1326.43 98.773 1326.43 99.41C1326.43 99.6383 1326.5 99.8615 1326.62 100.051C1326.75 100.241 1326.93 100.39 1327.14 100.477C1327.35 100.565 1327.58 100.588 1327.81 100.544C1328.03 100.5 1328.24 100.391 1328.4 100.23C1328.56 100.069 1328.67 99.8635 1328.72 99.6397C1328.76 99.416 1328.74 99.1839 1328.65 98.9727C1328.57 98.7615 1328.42 98.5807 1328.23 98.4531C1328.04 98.3256 1327.82 98.257 1327.59 98.256ZM522.388 225.628C522.234 225.624 522.08 225.65 521.936 225.706C521.792 225.762 521.661 225.846 521.55 225.954C521.44 226.062 521.351 226.19 521.291 226.333C521.231 226.475 521.2 226.628 521.201 226.782C521.201 226.936 521.232 227.089 521.292 227.231C521.352 227.374 521.44 227.502 521.551 227.61C521.662 227.717 521.793 227.801 521.937 227.857C522.081 227.913 522.235 227.94 522.389 227.935C522.689 227.926 522.974 227.8 523.183 227.585C523.392 227.37 523.509 227.081 523.508 226.781C523.508 226.481 523.391 226.193 523.182 225.977C522.973 225.762 522.688 225.637 522.388 225.628V225.628ZM1372.39 185.628C1371.75 185.628 1371.23 186.145 1371.23 186.782C1371.23 187.419 1371.75 187.936 1372.39 187.936C1373.03 187.936 1373.54 187.419 1373.54 186.782C1373.54 186.631 1373.51 186.481 1373.45 186.341C1373.4 186.201 1373.31 186.073 1373.2 185.966C1373.1 185.859 1372.97 185.774 1372.83 185.716C1372.69 185.658 1372.54 185.628 1372.39 185.628ZM559.152 350.942C558.998 350.938 558.844 350.964 558.7 351.02C558.556 351.076 558.425 351.16 558.314 351.268C558.203 351.376 558.115 351.504 558.055 351.647C557.995 351.789 557.964 351.942 557.964 352.096C557.965 352.25 557.996 352.403 558.056 352.545C558.116 352.688 558.204 352.816 558.315 352.924C558.426 353.031 558.557 353.115 558.701 353.171C558.845 353.227 558.999 353.254 559.153 353.249C559.453 353.24 559.738 353.114 559.947 352.899C560.156 352.684 560.273 352.395 560.272 352.095C560.272 351.795 560.155 351.507 559.946 351.291C559.737 351.076 559.452 350.951 559.152 350.942V350.942ZM344.887 158.941C344.733 158.937 344.579 158.963 344.435 159.019C344.291 159.075 344.16 159.159 344.049 159.267C343.938 159.375 343.85 159.503 343.79 159.646C343.73 159.788 343.699 159.941 343.699 160.095C343.7 160.249 343.731 160.402 343.791 160.544C343.851 160.687 343.939 160.815 344.05 160.923C344.161 161.03 344.292 161.114 344.436 161.17C344.58 161.226 344.734 161.253 344.888 161.248C345.188 161.239 345.473 161.113 345.682 160.898C345.891 160.683 346.008 160.394 346.007 160.094C346.007 159.794 345.89 159.506 345.681 159.29C345.472 159.075 345.187 158.95 344.887 158.941V158.941ZM246.075 200.328C245.921 200.324 245.767 200.35 245.623 200.406C245.479 200.462 245.348 200.546 245.237 200.654C245.126 200.762 245.038 200.89 244.978 201.033C244.918 201.175 244.887 201.328 244.887 201.482C244.888 201.636 244.919 201.789 244.979 201.931C245.039 202.074 245.127 202.202 245.238 202.31C245.349 202.417 245.48 202.501 245.624 202.557C245.768 202.613 245.922 202.64 246.076 202.635C246.376 202.626 246.661 202.5 246.87 202.285C247.079 202.07 247.196 201.781 247.195 201.481C247.195 201.181 247.078 200.892 246.869 200.677C246.66 200.462 246.375 200.337 246.075 200.328V200.328ZM259.295 60.188C258.989 60.188 258.696 60.3095 258.479 60.5258C258.263 60.7422 258.141 61.0356 258.141 61.3415C258.141 61.6474 258.263 61.9408 258.479 62.1571C258.696 62.3735 258.989 62.495 259.295 62.495C259.601 62.495 259.894 62.3735 260.111 62.1571C260.327 61.9408 260.448 61.6474 260.448 61.3415C260.448 61.0356 260.327 60.7422 260.111 60.5258C259.894 60.3095 259.601 60.188 259.295 60.188V60.188ZM121.999 267.015C121.845 267.011 121.691 267.037 121.547 267.093C121.403 267.149 121.272 267.233 121.161 267.341C121.05 267.449 120.962 267.577 120.902 267.719C120.842 267.862 120.811 268.015 120.811 268.169C120.812 268.323 120.843 268.476 120.903 268.618C120.963 268.761 121.051 268.889 121.162 268.997C121.273 269.104 121.404 269.188 121.548 269.244C121.692 269.3 121.846 269.327 122 269.322C122.3 269.313 122.585 269.187 122.794 268.972C123.003 268.757 123.12 268.468 123.119 268.168C123.119 267.868 123.002 267.58 122.793 267.364C122.584 267.149 122.299 267.024 121.999 267.015V267.015ZM106.492 328.571C106.186 328.571 105.892 328.693 105.676 328.909C105.459 329.126 105.337 329.419 105.337 329.725C105.337 330.032 105.459 330.325 105.676 330.542C105.892 330.758 106.186 330.88 106.492 330.88C106.798 330.88 107.092 330.758 107.308 330.542C107.525 330.325 107.646 330.032 107.646 329.725C107.646 329.419 107.525 329.126 107.308 328.909C107.092 328.693 106.798 328.571 106.492 328.571ZM236.317 326.263C236.163 326.259 236.009 326.285 235.865 326.341C235.721 326.397 235.59 326.481 235.479 326.589C235.368 326.697 235.28 326.825 235.22 326.968C235.16 327.11 235.129 327.263 235.129 327.417C235.13 327.571 235.161 327.724 235.221 327.866C235.281 328.009 235.369 328.137 235.48 328.245C235.591 328.352 235.722 328.436 235.866 328.492C236.01 328.548 236.164 328.575 236.318 328.57C236.618 328.561 236.903 328.436 237.112 328.22C237.321 328.005 237.438 327.716 237.437 327.416C237.437 327.116 237.32 326.828 237.111 326.612C236.902 326.397 236.617 326.272 236.317 326.263V326.263ZM1.23993 291.215C1.08838 291.215 0.938332 291.245 0.798347 291.303C0.658363 291.361 0.531184 291.446 0.424071 291.553C0.316959 291.661 0.232011 291.788 0.174078 291.928C0.116144 292.068 0.0863602 292.218 0.0864259 292.369C0.0864916 292.521 0.116406 292.671 0.17446 292.811C0.232515 292.951 0.317573 293.078 0.424778 293.185C0.531984 293.292 0.659236 293.377 0.799271 293.435C0.939306 293.493 1.08938 293.523 1.24093 293.523C1.54699 293.523 1.84051 293.401 2.05693 293.185C2.27334 292.969 2.39493 292.675 2.39493 292.369C2.39493 292.063 2.27334 291.769 2.05693 291.553C1.84051 291.337 1.54699 291.215 1.24093 291.215H1.23993ZM232.875 447.511C232.721 447.507 232.567 447.533 232.423 447.589C232.279 447.645 232.148 447.729 232.037 447.837C231.926 447.945 231.838 448.073 231.778 448.216C231.718 448.358 231.687 448.511 231.687 448.665C231.688 448.819 231.719 448.972 231.779 449.114C231.839 449.257 231.927 449.385 232.038 449.493C232.149 449.6 232.28 449.684 232.424 449.74C232.568 449.796 232.722 449.823 232.876 449.818C233.176 449.809 233.461 449.683 233.67 449.468C233.879 449.253 233.996 448.964 233.995 448.664C233.995 448.364 233.878 448.076 233.669 447.86C233.46 447.645 233.175 447.52 232.875 447.511V447.511Z" fill="white"/>
<path opacity="0.6" d="M1405.43 145.819L1422.88 115.938H1388.13L1405.43 145.819ZM1412.52 121.797L1405.43 133.728L1398.33 121.85L1412.52 121.797V121.797Z" fill="#FF5000"/>
<path opacity="0.6" d="M1229.67 132.361L1254.28 108.001L1220.69 99.124L1229.67 132.361V132.361ZM1242.84 111.055L1232.85 120.731L1229.03 107.415L1242.84 111.055Z" fill="#AEB1C2"/>
<path opacity="0.6" d="M634.669 319.361L659.28 295.001L625.689 286.124L634.669 319.361V319.361ZM647.839 298.055L637.849 307.731L634.03 294.415L647.839 298.055Z" fill="#AEB1C2"/>
<path opacity="0.6" d="M408.028 270.629L417.166 237.232L383.614 246.27L408.028 270.629V270.629ZM408.755 245.56L404.941 258.929L394.987 249.324L408.755 245.56ZM1074.86 280.82L1099.48 256.478L1065.99 247.512L1074.86 280.82V280.82ZM1088.01 259.514L1078.02 269.191L1074.2 255.875L1088.01 259.514Z" fill="white"/>
<path opacity="0.6" d="M-186.972 457.629L-177.834 424.232L-211.386 433.27L-186.972 457.629V457.629ZM-186.245 432.56L-190.059 445.929L-200.013 436.324L-186.245 432.56ZM479.859 467.82L504.479 443.478L470.989 434.512L479.859 467.82V467.82ZM493.009 446.514L483.019 456.191L479.199 442.875L493.009 446.514Z" fill="white"/>
<path opacity="0.6" d="M604.22 457.648L600.432 425.716L574.752 445.148L604.22 457.648ZM596.108 435.86L597.5 448.7L585.567 443.899L596.108 435.86V435.86Z" fill="#A573F4"/>
<path opacity="0.6" d="M9.21991 644.648L5.43195 612.716L-20.248 632.148L9.21991 644.648ZM1.10791 622.86L2.49994 635.7L-9.43304 630.899L1.10791 622.86V622.86Z" fill="#A573F4"/>
<path opacity="0.6" d="M344.218 320.519L341.748 299.694L325 312.367L344.218 320.519ZM338.928 306.309L339.836 314.683L332.053 311.552L338.928 306.309V306.309ZM918.419 464.82L915.948 443.995L899.2 456.668L918.419 464.82ZM913.128 450.61L914.036 458.984L906.253 455.853L913.128 450.61V450.61Z" fill="#FF7654"/>
<path opacity="0.6" d="M-250.782 507.519L-253.252 486.694L-270 499.367L-250.782 507.519ZM-256.072 493.309L-255.164 501.683L-262.947 498.552L-256.072 493.309V493.309ZM323.419 651.82L320.948 630.995L304.2 643.668L323.419 651.82ZM318.128 637.61L319.036 645.984L311.253 642.853L318.128 637.61V637.61Z" fill="#FF7654"/>
<path opacity="0.6" d="M1225.88 413.45L1222.75 387.071L1201.54 403.124L1225.88 413.45V413.45ZM1219.18 395.451L1220.33 406.058L1210.47 402.092L1219.18 395.451V395.451Z" fill="#A573F4"/>
<path opacity="0.6" d="M630.879 600.45L627.749 574.071L606.539 590.124L630.879 600.45V600.45ZM624.179 582.451L625.329 593.058L615.469 589.092L624.179 582.451V582.451Z" fill="#A573F4"/>
<path opacity="0.1" d="M430.809 389.09L434.269 384.811L437.534 397.399L430.809 389.09V389.09Z" fill="#662D91"/>
<path opacity="0.6" d="M657.673 45.001C657.521 45.001 657.371 45.0308 657.231 45.0888C657.091 45.1468 656.964 45.2318 656.857 45.339C656.75 45.4462 656.665 45.5734 656.607 45.7134C656.549 45.8534 656.519 46.0035 656.519 46.155C656.519 46.3065 656.549 46.4566 656.607 46.5966C656.665 46.7366 656.75 46.8638 656.857 46.971C656.964 47.0782 657.091 47.1632 657.231 47.2212C657.371 47.2792 657.521 47.309 657.673 47.309C657.979 47.309 658.273 47.1874 658.489 46.9709C658.706 46.7543 658.828 46.4607 658.828 46.1545C658.828 45.8483 658.706 45.5547 658.489 45.3381C658.273 45.1216 657.979 45 657.673 45V45.001Z" fill="white"/>
<path opacity="0.6" d="M62.673 232.001C62.5215 232.001 62.3715 232.031 62.2314 232.089C62.0914 232.147 61.9642 232.232 61.8571 232.339C61.7499 232.446 61.6649 232.573 61.6069 232.713C61.5489 232.853 61.519 233.003 61.519 233.155C61.519 233.307 61.5489 233.457 61.6069 233.597C61.6649 233.737 61.7499 233.864 61.8571 233.971C61.9642 234.078 62.0914 234.163 62.2314 234.221C62.3715 234.279 62.5215 234.309 62.673 234.309C62.9792 234.309 63.2729 234.187 63.4894 233.971C63.706 233.754 63.8276 233.461 63.8276 233.155C63.8276 232.848 63.706 232.555 63.4894 232.338C63.2729 232.122 62.9792 232 62.673 232V232.001Z" fill="white"/>
<path opacity="0.3" d="M1313.85 314.228C1305.99 314.228 1298.3 311.893 1291.76 307.522C1285.22 303.148 1280.13 296.933 1277.12 289.663C1274.11 282.391 1273.32 274.389 1274.86 266.67C1276.39 258.953 1280.18 251.863 1285.74 246.298C1291.3 240.736 1298.39 236.948 1306.11 235.413C1313.82 233.88 1321.82 234.671 1329.08 237.685C1336.35 240.696 1342.56 245.8 1346.92 252.347C1351.29 258.893 1353.62 266.587 1353.62 274.457C1353.6 285.003 1349.41 295.113 1341.95 302.57C1334.5 310.026 1324.39 314.219 1313.85 314.228ZM1313.85 316.27C1322.12 316.27 1330.21 313.816 1337.08 309.22C1343.96 304.621 1349.31 298.087 1352.48 290.444C1355.64 282.798 1356.47 274.387 1354.85 266.272C1353.24 258.158 1349.26 250.705 1343.41 244.855C1337.56 239.007 1330.11 235.024 1322 233.41C1313.89 231.799 1305.48 232.63 1297.84 235.798C1290.2 238.97 1283.68 244.334 1279.09 251.213C1275.27 256.936 1272.93 263.51 1272.25 270.356C1271.58 277.201 1272.6 284.107 1275.23 290.463C1277.33 295.537 1280.42 300.147 1284.3 304.03C1288.18 307.911 1292.79 310.99 1297.86 313.09C1302.93 315.19 1308.36 316.271 1313.85 316.27V316.27Z" fill="#E7EBEE"/>
<path opacity="0.6" d="M653.797 142.93L653.939 142.876L651.561 137L653.797 142.93Z" fill="#1652F0"/>
</g>
</g>
<defs>
<clipPath id="clip0_10_31">
<rect width="1423" height="643" fill="white"/>
</clipPath>
</defs>
</svg>
