<svg width="471" height="123" viewBox="0 0 471 123" fill="none" xmlns="http://www.w3.org/2000/svg">
<rect width="120" height="123" rx="37" fill="#7150EE"/>
<path d="M56.306 31.3467C55.9012 27.9883 52.8262 25.5448 49.5804 26.4974C44.9139 27.867 40.5432 30.1492 36.7309 33.2328C31.3237 37.6066 27.2587 43.4157 25.002 49.994C22.7454 56.5724 22.3884 63.6535 23.9721 70.4254C25.5557 77.1974 29.0159 83.3859 33.9558 88.2812C38.8957 93.1765 45.1153 96.5805 51.9013 98.1028C58.6873 99.625 65.7649 99.2039 72.3226 96.8877C78.8802 94.5716 84.6522 90.4541 88.9768 85.0075C92.0258 81.1674 94.2683 76.7763 95.5955 72.0975C96.5187 68.8433 94.0474 65.7905 90.6855 65.4162V65.4162C87.3236 65.0419 84.3644 67.5127 83.1781 70.6805C82.2757 73.09 80.9987 75.3557 79.3833 77.3903C76.4905 81.0336 72.6294 83.7879 68.2429 85.3373C63.8563 86.8866 59.1219 87.1683 54.5826 86.15C50.0433 85.1318 45.8828 82.8548 42.5784 79.5801C39.274 76.3055 36.9594 72.1659 35.9 67.636C34.8407 63.1061 35.0795 58.3693 36.589 53.9689C38.0986 49.5685 40.8177 45.6826 44.4347 42.7569C46.4546 41.1231 48.7087 39.8257 51.1099 38.9015C54.2668 37.6865 56.7107 34.7051 56.306 31.3467V31.3467Z" fill="white"/>
<path d="M89.9903 48.2311C91.9979 47.3094 92.8964 44.9205 91.7635 43.024C88.7309 37.9478 84.5243 33.671 79.4989 30.5549C77.6214 29.3907 75.2181 30.2495 74.2632 32.2416L72.4264 36.074C71.4716 38.0661 72.3371 40.4303 74.1496 41.6933C76.6624 43.4442 78.829 45.6469 80.5381 48.1883C81.7709 50.0215 84.1204 50.926 86.1281 50.0043L89.9903 48.2311Z" fill="white"/>
<path d="M152.904 67.895C152.904 61.6206 154.259 56.6768 156.969 53.0635C159.679 49.4502 163.463 47.6436 168.322 47.6436C171.862 47.6436 174.84 49.0352 177.257 51.8184V31.75H189.635V88H178.539L177.917 83.752C175.377 87.0723 172.155 88.7324 168.249 88.7324C163.537 88.7324 159.801 86.9258 157.042 83.3125C154.284 79.6992 152.904 74.5601 152.904 67.895ZM165.246 68.6641C165.246 75.6953 167.296 79.2109 171.398 79.2109C174.132 79.2109 176.085 78.0635 177.257 75.7686V60.6807C176.134 58.3369 174.206 57.165 171.471 57.165C167.663 57.165 165.6 60.2412 165.282 66.3936L165.246 68.6641ZM215.819 88.7324C209.74 88.7324 204.821 86.9258 201.061 83.3125C197.301 79.6748 195.421 74.9507 195.421 69.1401V68.1147C195.421 64.062 196.166 60.4854 197.655 57.3848C199.169 54.2842 201.366 51.8916 204.247 50.207C207.128 48.498 210.546 47.6436 214.501 47.6436C220.067 47.6436 224.462 49.377 227.685 52.8438C230.907 56.2861 232.519 61.0957 232.519 67.2725V72.0698H207.982C208.422 74.2915 209.386 76.0371 210.875 77.3066C212.365 78.5762 214.293 79.2109 216.662 79.2109C220.568 79.2109 223.62 77.8438 225.817 75.1094L231.457 81.7744C229.918 83.8984 227.733 85.5952 224.901 86.8647C222.094 88.1099 219.066 88.7324 215.819 88.7324ZM214.428 57.165C210.814 57.165 208.666 59.5576 207.982 64.3428H220.434V63.3906C220.482 61.4131 219.982 59.8872 218.932 58.813C217.882 57.7144 216.381 57.165 214.428 57.165ZM258.263 76.8672C258.263 75.8174 257.714 74.9751 256.615 74.3403C255.517 73.7056 253.429 73.0464 250.353 72.3628C247.277 71.6792 244.738 70.7881 242.736 69.6895C240.734 68.5664 239.208 67.2114 238.158 65.6245C237.108 64.0376 236.583 62.2188 236.583 60.168C236.583 56.5303 238.085 53.5396 241.088 51.1958C244.091 48.8276 248.021 47.6436 252.88 47.6436C258.104 47.6436 262.304 48.8276 265.478 51.1958C268.651 53.564 270.238 56.6768 270.238 60.5342H257.86C257.86 57.3604 256.188 55.7734 252.843 55.7734C251.549 55.7734 250.463 56.1396 249.584 56.8721C248.705 57.5801 248.266 58.4712 248.266 59.5454C248.266 60.644 248.803 61.5352 249.877 62.2188C250.951 62.9023 252.66 63.4639 255.004 63.9033C257.372 64.3428 259.447 64.8677 261.229 65.478C267.187 67.5288 270.165 71.2031 270.165 76.501C270.165 80.1143 268.554 83.0562 265.331 85.3267C262.133 87.5972 257.982 88.7324 252.88 88.7324C249.486 88.7324 246.459 88.1221 243.798 86.9014C241.137 85.6807 239.062 84.0205 237.572 81.9209C236.083 79.8213 235.338 77.6118 235.338 75.2925H246.874C246.923 77.1235 247.533 78.4663 248.705 79.3208C249.877 80.1509 251.378 80.5659 253.209 80.5659C254.894 80.5659 256.151 80.2241 256.981 79.5405C257.836 78.8569 258.263 77.9658 258.263 76.8672ZM288.988 88H276.61V48.376H288.988V88ZM275.878 38.1587C275.878 36.4009 276.513 34.9604 277.782 33.8374C279.052 32.7144 280.7 32.1528 282.726 32.1528C284.752 32.1528 286.4 32.7144 287.67 33.8374C288.939 34.9604 289.574 36.4009 289.574 38.1587C289.574 39.9165 288.939 41.3569 287.67 42.48C286.4 43.603 284.752 44.1646 282.726 44.1646C280.7 44.1646 279.052 43.603 277.782 42.48C276.513 41.3569 275.878 39.9165 275.878 38.1587ZM295.177 67.895C295.177 63.8911 295.836 60.3511 297.155 57.2749C298.473 54.1987 300.365 51.8306 302.831 50.1704C305.297 48.4858 308.166 47.6436 311.437 47.6436C315.563 47.6436 318.786 49.0352 321.105 51.8184L321.544 48.376H332.75V86.4985C332.75 89.9897 331.933 93.0171 330.297 95.5806C328.686 98.1685 326.342 100.146 323.266 101.513C320.189 102.905 316.625 103.601 312.572 103.601C309.667 103.601 306.847 103.051 304.113 101.953C301.403 100.854 299.328 99.4258 297.887 97.668L303.051 90.417C305.346 93.127 308.373 94.4819 312.133 94.4819C317.602 94.4819 320.336 91.6743 320.336 86.0591V84.814C317.968 87.4263 314.977 88.7324 311.364 88.7324C306.53 88.7324 302.624 86.8892 299.645 83.2026C296.667 79.4917 295.177 74.5356 295.177 68.3345V67.895ZM307.555 68.6641C307.555 71.9111 308.166 74.4868 309.386 76.3911C310.607 78.271 312.316 79.2109 314.513 79.2109C317.174 79.2109 319.115 78.3198 320.336 76.5376V59.875C319.14 58.0684 317.223 57.165 314.586 57.165C312.389 57.165 310.668 58.1538 309.423 60.1313C308.178 62.0845 307.555 64.9287 307.555 68.6641ZM351.098 48.376L351.5 53.0269C354.235 49.438 358.007 47.6436 362.816 47.6436C366.942 47.6436 370.019 48.8765 372.045 51.3423C374.096 53.8081 375.158 57.519 375.231 62.4751V88H362.853V62.9878C362.853 60.9858 362.45 59.521 361.645 58.5933C360.839 57.6411 359.374 57.165 357.25 57.165C354.833 57.165 353.039 58.1172 351.867 60.0215V88H339.525V48.376H351.098ZM401.269 88.7324C395.189 88.7324 390.27 86.9258 386.51 83.3125C382.75 79.6748 380.871 74.9507 380.871 69.1401V68.1147C380.871 64.062 381.615 60.4854 383.104 57.3848C384.618 54.2842 386.815 51.8916 389.696 50.207C392.577 48.498 395.995 47.6436 399.95 47.6436C405.517 47.6436 409.911 49.377 413.134 52.8438C416.356 56.2861 417.968 61.0957 417.968 67.2725V72.0698H393.432C393.871 74.2915 394.835 76.0371 396.325 77.3066C397.814 78.5762 399.743 79.2109 402.111 79.2109C406.017 79.2109 409.069 77.8438 411.266 75.1094L416.906 81.7744C415.368 83.8984 413.183 85.5952 410.351 86.8647C407.543 88.1099 404.516 88.7324 401.269 88.7324ZM399.877 57.165C396.264 57.165 394.115 59.5576 393.432 64.3428H405.883V63.3906C405.932 61.4131 405.431 59.8872 404.381 58.813C403.332 57.7144 401.83 57.165 399.877 57.165ZM446.935 59.5454L442.87 59.2524C438.988 59.2524 436.498 60.4731 435.399 62.9146V88H423.058V48.376H434.63L435.033 53.4663C437.108 49.5845 440.001 47.6436 443.712 47.6436C445.031 47.6436 446.178 47.79 447.155 48.083L446.935 59.5454Z" fill="#372674"/>
<path d="M459.02 76.0249C460.973 76.0249 462.597 76.6108 463.891 77.7827C465.185 78.9302 465.832 80.4072 465.832 82.2139C465.832 84.0205 465.185 85.5098 463.891 86.6816C462.597 87.8291 460.973 88.4028 459.02 88.4028C457.042 88.4028 455.407 87.8169 454.113 86.645C452.843 85.4731 452.208 83.9961 452.208 82.2139C452.208 80.4316 452.843 78.9546 454.113 77.7827C455.407 76.6108 457.042 76.0249 459.02 76.0249Z" fill="#7150EE"/>
</svg>
