<svg width="291" height="66" viewBox="0 0 291 66" fill="none" xmlns="http://www.w3.org/2000/svg">
<rect width="64" height="66" rx="21" fill="#7150EE"/>
<path d="M30.0303 16.825C29.8143 15.0211 28.162 13.7084 26.4202 14.225C23.9399 14.9606 21.6168 16.1828 19.5898 17.8324C16.7059 20.1793 14.5379 23.2964 13.3344 26.8262C12.1308 30.3561 11.9404 34.1557 12.785 37.7894C13.6297 41.4231 15.4751 44.7438 18.1097 47.3706C20.7443 49.9973 24.0614 51.8239 27.6806 52.6407C31.2998 53.4575 35.0746 53.2315 38.572 51.9887C42.0694 50.7459 45.1478 48.5365 47.4542 45.6139C49.0852 43.5473 50.2834 41.1832 50.9905 38.6643C51.4777 36.9288 50.1612 35.3027 48.3699 35.102V35.102C46.5752 34.901 44.9947 36.2199 44.3665 37.913C43.8849 39.2108 43.2022 40.4312 42.3377 41.5267C40.7949 43.4816 38.7356 44.9595 36.3961 45.7909C34.0566 46.6223 31.5316 46.7734 29.1106 46.227C26.6897 45.6806 24.4708 44.4588 22.7084 42.7017C20.9461 40.9446 19.7116 38.7233 19.1466 36.2926C18.5816 33.862 18.709 31.3203 19.5141 28.9591C20.3192 26.5979 21.7694 24.5128 23.6985 22.9429C24.7721 22.0691 25.9699 21.3747 27.2458 20.8791C28.9359 20.2226 30.246 18.6253 30.0303 16.825V16.825Z" fill="white"/>
<path d="M46.9785 26.3497C48.6127 25.5948 49.3507 23.6408 48.3465 22.1468C47.0077 20.155 45.32 18.4241 43.3666 17.0392C41.8826 15.9871 39.8929 16.7005 39.1105 18.3428V18.3428C38.3333 19.9741 39.0578 21.9 40.4433 23.06C41.1154 23.6227 41.7304 24.2513 42.279 24.9363C43.4115 26.3506 45.3336 27.1095 46.9785 26.3497V26.3497Z" fill="white"/>
<path d="M81.0156 34.2773C81.0156 30.931 81.7383 28.2943 83.1836 26.3672C84.6289 24.4401 86.6471 23.4766 89.2383 23.4766C91.1263 23.4766 92.7148 24.2188 94.0039 25.7031V15H100.605V45H94.6875L94.3555 42.7344C93.0013 44.5052 91.2826 45.3906 89.1992 45.3906C86.6862 45.3906 84.694 44.4271 83.2227 42.5C81.7513 40.5729 81.0156 37.832 81.0156 34.2773ZM87.5977 34.6875C87.5977 38.4375 88.6914 40.3125 90.8789 40.3125C92.3372 40.3125 93.3789 39.7005 94.0039 38.4766V30.4297C93.4049 29.1797 92.3763 28.5547 90.918 28.5547C88.8867 28.5547 87.7865 30.1953 87.6172 33.4766L87.5977 34.6875ZM114.57 45.3906C111.328 45.3906 108.704 44.4271 106.699 42.5C104.694 40.5599 103.691 38.0404 103.691 34.9414V34.3945C103.691 32.2331 104.089 30.3255 104.883 28.6719C105.69 27.0182 106.862 25.7422 108.398 24.8438C109.935 23.9323 111.758 23.4766 113.867 23.4766C116.836 23.4766 119.18 24.401 120.898 26.25C122.617 28.0859 123.477 30.651 123.477 33.9453V36.5039H110.391C110.625 37.6888 111.139 38.6198 111.934 39.2969C112.728 39.974 113.757 40.3125 115.02 40.3125C117.103 40.3125 118.73 39.5833 119.902 38.125L122.91 41.6797C122.09 42.8125 120.924 43.7174 119.414 44.3945C117.917 45.0586 116.302 45.3906 114.57 45.3906ZM113.828 28.5547C111.901 28.5547 110.755 29.8307 110.391 32.3828H117.031V31.875C117.057 30.8203 116.79 30.0065 116.23 29.4336C115.671 28.8477 114.87 28.5547 113.828 28.5547ZM137.207 39.0625C137.207 38.5026 136.914 38.0534 136.328 37.7148C135.742 37.3763 134.629 37.0247 132.988 36.6602C131.348 36.2956 129.993 35.8203 128.926 35.2344C127.858 34.6354 127.044 33.9128 126.484 33.0664C125.924 32.2201 125.645 31.25 125.645 30.1562C125.645 28.2161 126.445 26.6211 128.047 25.3711C129.648 24.1081 131.745 23.4766 134.336 23.4766C137.122 23.4766 139.362 24.1081 141.055 25.3711C142.747 26.6341 143.594 28.2943 143.594 30.3516H136.992C136.992 28.6589 136.1 27.8125 134.316 27.8125C133.626 27.8125 133.047 28.0078 132.578 28.3984C132.109 28.776 131.875 29.2513 131.875 29.8242C131.875 30.4102 132.161 30.8854 132.734 31.25C133.307 31.6146 134.219 31.9141 135.469 32.1484C136.732 32.3828 137.839 32.6628 138.789 32.9883C141.966 34.082 143.555 36.0417 143.555 38.8672C143.555 40.7943 142.695 42.3633 140.977 43.5742C139.271 44.7852 137.057 45.3906 134.336 45.3906C132.526 45.3906 130.911 45.0651 129.492 44.4141C128.073 43.763 126.966 42.8776 126.172 41.7578C125.378 40.638 124.98 39.4596 124.98 38.2227H131.133C131.159 39.1992 131.484 39.9154 132.109 40.3711C132.734 40.8138 133.535 41.0352 134.512 41.0352C135.41 41.0352 136.081 40.8529 136.523 40.4883C136.979 40.1237 137.207 39.6484 137.207 39.0625ZM153.594 45H146.992V23.8672H153.594V45ZM146.602 18.418C146.602 17.4805 146.94 16.7122 147.617 16.1133C148.294 15.5143 149.173 15.2148 150.254 15.2148C151.335 15.2148 152.214 15.5143 152.891 16.1133C153.568 16.7122 153.906 17.4805 153.906 18.418C153.906 19.3555 153.568 20.1237 152.891 20.7227C152.214 21.3216 151.335 21.6211 150.254 21.6211C149.173 21.6211 148.294 21.3216 147.617 20.7227C146.94 20.1237 146.602 19.3555 146.602 18.418ZM156.895 34.2773C156.895 32.1419 157.246 30.2539 157.949 28.6133C158.652 26.9727 159.661 25.7096 160.977 24.8242C162.292 23.9258 163.822 23.4766 165.566 23.4766C167.767 23.4766 169.486 24.2188 170.723 25.7031L170.957 23.8672H176.934V44.1992C176.934 46.0612 176.497 47.6758 175.625 49.043C174.766 50.4232 173.516 51.4779 171.875 52.207C170.234 52.9492 168.333 53.3203 166.172 53.3203C164.622 53.3203 163.118 53.0273 161.66 52.4414C160.215 51.8555 159.108 51.0938 158.34 50.1562L161.094 46.2891C162.318 47.7344 163.932 48.457 165.938 48.457C168.854 48.457 170.312 46.9596 170.312 43.9648V43.3008C169.049 44.694 167.454 45.3906 165.527 45.3906C162.949 45.3906 160.866 44.4076 159.277 42.4414C157.689 40.4622 156.895 37.819 156.895 34.5117V34.2773ZM163.496 34.6875C163.496 36.4193 163.822 37.793 164.473 38.8086C165.124 39.8112 166.035 40.3125 167.207 40.3125C168.626 40.3125 169.661 39.8372 170.312 38.8867V30C169.674 29.0365 168.652 28.5547 167.246 28.5547C166.074 28.5547 165.156 29.082 164.492 30.1367C163.828 31.1784 163.496 32.6953 163.496 34.6875ZM186.719 23.8672L186.934 26.3477C188.392 24.4336 190.404 23.4766 192.969 23.4766C195.169 23.4766 196.81 24.1341 197.891 25.4492C198.984 26.7643 199.551 28.7435 199.59 31.3867V45H192.988V31.6602C192.988 30.5924 192.773 29.8112 192.344 29.3164C191.914 28.8086 191.133 28.5547 190 28.5547C188.711 28.5547 187.754 29.0625 187.129 30.0781V45H180.547V23.8672H186.719ZM213.477 45.3906C210.234 45.3906 207.611 44.4271 205.605 42.5C203.6 40.5599 202.598 38.0404 202.598 34.9414V34.3945C202.598 32.2331 202.995 30.3255 203.789 28.6719C204.596 27.0182 205.768 25.7422 207.305 24.8438C208.841 23.9323 210.664 23.4766 212.773 23.4766C215.742 23.4766 218.086 24.401 219.805 26.25C221.523 28.0859 222.383 30.651 222.383 33.9453V36.5039H209.297C209.531 37.6888 210.046 38.6198 210.84 39.2969C211.634 39.974 212.663 40.3125 213.926 40.3125C216.009 40.3125 217.637 39.5833 218.809 38.125L221.816 41.6797C220.996 42.8125 219.831 43.7174 218.32 44.3945C216.823 45.0586 215.208 45.3906 213.477 45.3906ZM212.734 28.5547C210.807 28.5547 209.661 29.8307 209.297 32.3828H215.938V31.875C215.964 30.8203 215.697 30.0065 215.137 29.4336C214.577 28.8477 213.776 28.5547 212.734 28.5547ZM237.832 29.8242L235.664 29.668C233.594 29.668 232.266 30.319 231.68 31.6211V45H225.098V23.8672H231.27L231.484 26.582C232.591 24.5117 234.134 23.4766 236.113 23.4766C236.816 23.4766 237.428 23.5547 237.949 23.7109L237.832 29.8242Z" fill="#372674"/>
<path d="M244.277 38.6133C245.319 38.6133 246.185 38.9258 246.875 39.5508C247.565 40.1628 247.91 40.9505 247.91 41.9141C247.91 42.8776 247.565 43.6719 246.875 44.2969C246.185 44.9089 245.319 45.2148 244.277 45.2148C243.223 45.2148 242.35 44.9023 241.66 44.2773C240.983 43.6523 240.645 42.8646 240.645 41.9141C240.645 40.9635 240.983 40.1758 241.66 39.5508C242.35 38.9258 243.223 38.6133 244.277 38.6133Z" fill="#7150EE"/>
</svg>
