<svg xmlns:xlink="http://www.w3.org/1999/xlink" xmlns="http://www.w3.org/2000/svg" width="1423" height="450" fill="none"><g opacity=".6"><path d="M1170.17 138.778h2.55v2.574h1.78v-2.574h2.55v-1.776h-2.55v-2.557h-1.78v2.557h-2.55v1.776zm-359.422 32.715h2.573v2.575h1.774v-2.575h2.555v-1.775h-2.555v-2.557h-1.774v2.557h-2.573v1.775zm-347.711 48.134h2.555v2.557h1.774v-2.557h2.573v-1.775h-2.573v-2.575h-1.774v2.575h-2.555v1.775zm850.003-40h2.55v2.557h1.78v-2.557h2.57v-1.775h-2.57v-2.575h-1.78v2.575h-2.55v1.775zM230.568 95.431h2.555v2.575h1.775V95.43h2.572v-1.775h-2.572v-2.557h-1.775v2.557h-2.555v1.775zm-29.294 258.707h2.555v2.557h1.775v-2.557h2.572v-1.775h-2.572v-2.575h-1.775v2.575h-2.555v1.775zm-68.542-8.247h1.969v1.957h1.358v-1.957h1.955v-1.358h-1.955v-1.957h-1.358v1.957h-1.969v1.358zm705.607 46.438a1.154 1.154 0 100 2.309 1.154 1.154 0 000-2.309zm72.392-116.685a1.154 1.154 0 100 2.309 1.154 1.154 0 000-2.309zm299.639-41.753a1.155 1.155 0 000 2.308c.64 0 1.16-.517 1.16-1.154 0-.638-.52-1.154-1.16-1.154zm29.86-129.913c-.63 0-1.15.517-1.15 1.154a1.156 1.156 0 002.31 0c0-.637-.52-1.154-1.16-1.154zm-116.6 56.336c-.64 0-1.16.517-1.16 1.154a1.156 1.156 0 101.16-1.154zm-646.044-22.058a1.154 1.154 0 10.001 2.307 1.154 1.154 0 00-.001-2.307zm850.004-40c-.64 0-1.16.517-1.16 1.154a1.155 1.155 0 101.16-1.154zM522.388 225.628a1.154 1.154 0 10.001 2.307 1.154 1.154 0 00-.001-2.307zm850.002-40c-.64 0-1.16.517-1.16 1.154 0 .637.52 1.154 1.16 1.154.64 0 1.15-.517 1.15-1.154a1.15 1.15 0 00-1.15-1.154zM559.152 350.942a1.154 1.154 0 10.001 2.307 1.154 1.154 0 00-.001-2.307zM344.887 158.941a1.154 1.154 0 10.001 2.307 1.154 1.154 0 00-.001-2.307zm-98.812 41.387a1.154 1.154 0 10.001 2.307 1.154 1.154 0 00-.001-2.307zm13.22-140.14a1.153 1.153 0 100 2.307 1.153 1.153 0 000-2.307zM121.999 267.015a1.154 1.154 0 10.001 2.307 1.154 1.154 0 00-.001-2.307zm-15.507 61.556a1.154 1.154 0 100 2.309 1.154 1.154 0 000-2.309zm129.825-2.308a1.154 1.154 0 10.001 2.307 1.154 1.154 0 00-.001-2.307zM1.24 291.215a1.154 1.154 0 10.001 2.308 1.154 1.154 0 000-2.308zm231.635 156.296a1.154 1.154 0 10.001 2.307 1.154 1.154 0 00-.001-2.307z" fill="#fff"/><path d="M1405.43 145.819l17.45-29.881h-34.75l17.3 29.881zm7.09-24.022l-7.09 11.931-7.1-11.878 14.19-.053z" fill="#FF5000"/><path d="M1196.07 87.36L1220.68 63l-33.59-8.877 8.98 33.237zm13.17-21.306l-9.99 9.676-3.82-13.316 13.81 3.64z" fill="#AEB1C2"/><path d="M374.429 225.628l9.138-33.397-33.552 9.038 24.414 24.359zm.727-25.069l-3.814 13.369-9.954-9.605 13.768-3.764zm666.104 35.26l24.62-24.342-33.49-8.966 8.87 33.308zm13.15-21.306l-9.99 9.677-3.82-13.316 13.81 3.639z" fill="#fff"/><path d="M570.621 412.647l-3.788-31.932-25.68 19.432 29.468 12.5zm-8.112-21.788l1.392 12.84-11.933-4.801 10.541-8.039z" fill="#A573F4"/><path d="M310.619 275.518l-2.47-20.825-16.748 12.673 19.218 8.152zm-5.29-14.21l.908 8.374-7.783-3.131 6.875-5.243zM884.82 419.819l-2.471-20.825-16.748 12.673 19.219 8.152zm-5.291-14.21l.908 8.374-7.783-3.131 6.875-5.243z" fill="#FF7654"/><path d="M1192.28 368.449l-3.13-26.379-21.21 16.053 24.34 10.326zm-6.7-17.999l1.15 10.607-9.86-3.966 8.71-6.641z" fill="#A573F4"/><path opacity=".1" d="M397.21 344.089l3.46-4.279 3.265 12.588-6.725-8.309z" fill="#662D91"/><path d="M624.074 0a1.154 1.154 0 100 2.308 1.154 1.154 0 000-2.309z" fill="#fff"/><path opacity=".3" d="M1313.85 314.228c-7.86 0-15.55-2.335-22.09-6.706a39.782 39.782 0 01-14.64-17.859 39.775 39.775 0 01-2.26-22.993 39.766 39.766 0 0110.88-20.372 39.799 39.799 0 0120.37-10.885 39.716 39.716 0 0122.97 2.272 39.692 39.692 0 0117.84 14.662 39.82 39.82 0 016.7 22.11 39.843 39.843 0 01-11.67 28.113 39.776 39.776 0 01-28.1 11.658zm0 2.042c8.27 0 16.36-2.454 23.23-7.05a41.86 41.86 0 0015.4-18.776 41.84 41.84 0 002.37-24.172 41.787 41.787 0 00-11.44-21.417A41.812 41.812 0 001322 233.41a41.814 41.814 0 00-24.16 2.388 41.826 41.826 0 00-18.75 15.415 41.891 41.891 0 00-3.86 39.25 41.863 41.863 0 009.07 13.567 41.78 41.78 0 0029.55 12.24z" fill="#E7EBEE"/><path d="M653.797 142.93l.142-.054-2.378-5.876 2.236 5.93z" fill="#1652F0"/></g></svg>